<svg width="24" height="25" viewBox="0 0 24 25" fill="none" xmlns="http://www.w3.org/2000/svg">
<path fill-rule="evenodd" clip-rule="evenodd" d="M4 0.113953C2.93913 0.113953 1.92172 0.53538 1.17157 1.28553C0.421427 2.03567 0 3.05309 0 4.11395V20.114C0 21.1748 0.421427 22.1922 1.17157 22.9424C1.92172 23.6925 2.93913 24.114 4 24.114H20C21.0609 24.114 22.0783 23.6925 22.8284 22.9424C23.5786 22.1922 24 21.1748 24 20.114V4.11395C24 3.05309 23.5786 2.03567 22.8284 1.28553C22.0783 0.53538 21.0609 0.113953 20 0.113953H4ZM9.33333 6.78062C9.33333 6.427 9.47381 6.08786 9.72386 5.83781C9.97391 5.58776 10.313 5.44729 10.6667 5.44729H18.6667C19.0203 5.44729 19.3594 5.58776 19.6095 5.83781C19.8595 6.08786 20 6.427 20 6.78062C20 7.13424 19.8595 7.47338 19.6095 7.72343C19.3594 7.97348 19.0203 8.11395 18.6667 8.11395H10.6667C10.313 8.11395 9.97391 7.97348 9.72386 7.72343C9.47381 7.47338 9.33333 7.13424 9.33333 6.78062ZM9.33333 12.114C9.33333 11.7603 9.47381 11.4212 9.72386 11.1711C9.97391 10.9211 10.313 10.7806 10.6667 10.7806H18.6667C19.0203 10.7806 19.3594 10.9211 19.6095 11.1711C19.8595 11.4212 20 11.7603 20 12.114C20 12.4676 19.8595 12.8067 19.6095 13.0568C19.3594 13.3068 19.0203 13.4473 18.6667 13.4473H10.6667C10.313 13.4473 9.97391 13.3068 9.72386 13.0568C9.47381 12.8067 9.33333 12.4676 9.33333 12.114ZM9.33333 17.4473C9.33333 17.0937 9.47381 16.7545 9.72386 16.5045C9.97391 16.2544 10.313 16.114 10.6667 16.114H18.6667C19.0203 16.114 19.3594 16.2544 19.6095 16.5045C19.8595 16.7545 20 17.0937 20 17.4473C20 17.8009 19.8595 18.14 19.6095 18.3901C19.3594 18.6401 19.0203 18.7806 18.6667 18.7806H10.6667C10.313 18.7806 9.97391 18.6401 9.72386 18.3901C9.47381 18.14 9.33333 17.8009 9.33333 17.4473ZM5.33333 5.44729C4.97971 5.44729 4.64057 5.58776 4.39052 5.83781C4.14048 6.08786 4 6.427 4 6.78062C4 7.13424 4.14048 7.47338 4.39052 7.72343C4.64057 7.97348 4.97971 8.11395 5.33333 8.11395C5.68696 8.11395 6.02743 7.97348 6.27748 7.72343C6.52752 7.47338 6.668 7.13424 6.668 6.78062C6.668 6.427 6.52752 6.08786 6.27748 5.83781C6.02743 5.58776 5.68696 5.44729 5.33333 5.44729ZM4 12.114C4 11.7603 4.14048 11.4212 4.39052 11.1711C4.64057 10.9211 4.97971 10.7806 5.33333 10.7806C5.68696 10.7806 6.02743 10.9211 6.27748 11.1711C6.52752 11.4212 6.668 11.7603 6.668 12.114C6.668 12.4676 6.52752 12.8067 6.27748 13.0568C6.02743 13.3068 5.68829 13.4473 5.33467 13.4473C4.98104 13.4473 4.64057 13.3068 4.39052 13.0568C4.14048 12.8067 4 12.4676 4 12.114ZM5.33333 16.114C4.97971 16.114 4.64057 16.2544 4.39052 16.5045C4.14048 16.7545 4 17.0937 4 17.4473C4 17.8009 4.14048 18.14 4.39052 18.3901C4.64057 18.6401 4.97971 18.7806 5.33333 18.7806C5.68696 18.7806 6.02743 18.6401 6.27748 18.3901C6.52752 18.14 6.668 17.8009 6.668 17.4473C6.668 17.0937 6.52752 16.7545 6.27748 16.5045C6.02743 16.2544 5.68696 16.114 5.33333 16.114Z" fill="white"/>
</svg>
