<svg width="24" height="24" fill="none" xmlns="http://www.w3.org/2000/svg"><path d="M10.36 1a2.62 2.62 0 0 1 3.28 0l7.87 6.3c.63.5.99 1.25.99 2.05v10.53a2.63 2.63 0 0 1-2.63 2.62h-5.25a1.13 1.13 0 0 1-1.12-1.13V13.5h-3v7.88a1.13 1.13 0 0 1-1.13 1.12H4.13a2.63 2.63 0 0 1-2.63-2.63V9.35c0-.8.36-1.55.99-2.04L10.36 1Zm1.87 1.75a.38.38 0 0 0-.46 0l-7.88 6.3a.38.38 0 0 0-.14.3v10.53c0 .2.17.37.38.37h4.12v-7.88a1.13 1.13 0 0 1 1.13-1.12h5.24a1.12 1.12 0 0 1 1.13 1.13v7.87h4.13a.37.37 0 0 0 .37-.38V9.35a.38.38 0 0 0-.14-.29l-7.88-6.3Z" fill="#fff"/></svg>