<svg width="24" height="25" viewBox="0 0 24 25" fill="none" xmlns="http://www.w3.org/2000/svg">
<path d="M13.7194 0.72884C13.2475 0.332954 12.6354 0.113953 12.0009 0.113953C11.3664 0.113953 10.7543 0.332954 10.2823 0.72884L0.853714 8.63804C0.585327 8.86295 0.37062 9.13806 0.223541 9.44549C0.0764612 9.75292 0.000298714 10.0858 0 10.4225V21.7133C0 22.35 0.270918 22.9606 0.753154 23.4108C1.23539 23.861 1.88944 24.114 2.57143 24.114H6C6.68199 24.114 7.33604 23.861 7.81827 23.4108C8.30051 22.9606 8.57143 22.35 8.57143 21.7133V15.3117C8.57143 15.0995 8.66173 14.896 8.82248 14.7459C8.98322 14.5958 9.20124 14.5115 9.42857 14.5115H14.5714C14.7988 14.5115 15.0168 14.5958 15.1775 14.7459C15.3383 14.896 15.4286 15.0995 15.4286 15.3117V21.7133C15.4286 22.35 15.6995 22.9606 16.1817 23.4108C16.664 23.861 17.318 24.114 18 24.114H21.4286C22.1106 24.114 22.7646 23.861 23.2468 23.4108C23.7291 22.9606 24 22.35 24 21.7133V10.4225C23.9999 10.0859 23.924 9.75311 23.7772 9.44569C23.6305 9.13827 23.4161 8.8631 23.148 8.63804L13.7194 0.72884Z" fill="white"/>
</svg>
