<svg width="24" height="25" viewBox="0 0 24 25" fill="none" xmlns="http://www.w3.org/2000/svg">
<path fill-rule="evenodd" clip-rule="evenodd" d="M0.501293 1.05447H10.0259C10.3027 1.05447 10.5272 1.2789 10.5272 1.55577V11.0803C10.5272 11.3572 10.3027 11.5816 10.0259 11.5816H0.501293C0.224423 11.5816 0 11.3572 0 11.0803V1.55577C0 1.2789 0.224423 1.05447 0.501293 1.05447ZM18.1817 0.260769L23.8532 5.93227C24.0489 6.12803 24.0489 6.44541 23.8532 6.6412L18.1817 12.3127C17.9859 12.5084 17.6685 12.5084 17.4728 12.3127L11.8013 6.64116C11.6055 6.44541 11.6055 6.12803 11.8013 5.93224L17.4728 0.260769C17.6685 0.0650139 17.9859 0.0650139 18.1817 0.260769ZM0.501293 13.5868H10.0259C10.3027 13.5868 10.5272 13.8112 10.5272 14.0881V23.6127C10.5272 23.8895 10.3027 24.114 10.0259 24.114H0.501293C0.224423 24.114 0 23.8895 0 23.6127V14.0881C0 13.8112 0.224423 13.5868 0.501293 13.5868ZM13.0336 13.5868H22.5582C22.8351 13.5868 23.0595 13.8112 23.0595 14.0881V23.6127C23.0595 23.8895 22.8351 24.114 22.5582 24.114H13.0336C12.7567 24.114 12.5323 23.8895 12.5323 23.6127V14.0881C12.5323 13.8112 12.7567 13.5868 13.0336 13.5868Z" fill="#2E3FD9"/>
</svg>
