<svg width="46" height="46" viewBox="0 0 46 46" fill="none" xmlns="http://www.w3.org/2000/svg">
<path d="M23.092 38.64C14.444 38.64 7.45203 31.648 7.45203 23C7.45203 14.352 14.444 7.35999 23.092 7.35999C31.74 7.35999 38.732 14.352 38.732 23C38.732 31.648 31.648 38.64 23.092 38.64ZM23.092 9.19999C15.456 9.19999 9.29203 15.364 9.29203 23C9.29203 30.636 15.456 36.8 23.092 36.8C30.728 36.8 36.892 30.636 36.892 23C36.892 15.364 30.636 9.19999 23.092 9.19999Z" fill="#1AB7F1"/>
<path d="M14.076 34.316L12.42 33.58C12.88 32.476 14.352 31.832 15.916 31.096C17.48 30.36 19.412 29.532 19.412 28.52V27.14C18.86 26.68 17.94 25.668 17.756 24.196C17.296 23.736 16.56 22.908 16.56 21.804C16.56 21.16 16.836 20.608 17.02 20.24C16.836 19.504 16.652 18.124 16.652 17.02C16.652 13.432 19.136 11.04 23.092 11.04C24.196 11.04 25.576 11.316 26.312 12.144C28.06 12.512 29.532 14.536 29.532 17.02C29.532 18.584 29.256 19.872 29.072 20.516C29.256 20.792 29.44 21.252 29.44 21.804C29.44 23 28.796 23.828 28.244 24.196C28.06 25.668 27.232 26.588 26.68 27.048V28.52C26.68 29.348 28.336 29.992 29.808 30.544C31.556 31.188 33.396 31.924 34.04 33.396L32.292 34.04C32.016 33.304 30.544 32.752 29.164 32.292C27.14 31.556 24.84 30.728 24.84 28.612V26.22L25.3 25.944C25.3 25.944 26.404 25.208 26.404 23.736V23.092L26.956 22.816C27.048 22.816 27.508 22.54 27.508 21.804C27.508 21.62 27.324 21.344 27.232 21.252L26.864 20.884L27.048 20.424C27.048 20.424 27.508 18.952 27.508 17.112C27.508 15.364 26.496 14.076 25.668 14.076H25.116L24.84 13.616C24.84 13.248 24.196 12.88 23.092 12.88C20.24 12.88 18.492 14.444 18.492 17.02C18.492 18.216 18.952 20.24 18.952 20.24L19.044 20.7L18.676 21.16C18.584 21.16 18.4 21.436 18.4 21.804C18.4 22.264 18.952 22.816 19.228 23L19.596 23.276V23.736C19.596 25.116 20.792 25.852 20.792 25.944L21.252 26.22V28.612C21.252 30.82 18.86 31.924 16.652 32.844C15.64 33.212 14.26 33.856 14.076 34.316Z" fill="#1AB7F1"/>
</svg>
