<svg width="140" height="138" fill="none" xmlns="http://www.w3.org/2000/svg"><g clip-path="url(#a)"><path fill-rule="evenodd" clip-rule="evenodd" d="M70 11.5c-32.22 0-58.33 25.74-58.33 57.5S37.78 126.5 70 126.5s58.33-25.74 58.33-57.5S102.22 11.5 70 11.5ZM49.58 54.63a19.87 19.87 0 0 1 5.98-14.24A20.44 20.44 0 0 1 70 34.5a20.67 20.67 0 0 1 14.44 5.9 20.11 20.11 0 0 1 5.98 14.23c0 5.33-2.15 10.45-5.98 14.23A20.57 20.57 0 0 1 70 74.75c-5.41 0-10.6-2.12-14.44-5.9a19.98 19.98 0 0 1-5.98-14.22Zm56.92 43.03a46.48 46.48 0 0 1-16.23 12.79A47.15 47.15 0 0 1 70 115a47.15 47.15 0 0 1-20.27-4.55 46.47 46.47 0 0 1-16.23-12.8A63.98 63.98 0 0 1 70 86.26a63.98 63.98 0 0 1 36.5 11.4Z" fill="#00AFEF"/></g><defs><clipPath id="a"><path fill="#fff" d="M0 0h140v138H0z"/></clipPath></defs></svg>